<svg xmlns="http://www.w3.org/2000/svg" 
    xmlns:xlink="http://www.w3.org/1999/xlink" version="1.1" x="0px" y="0px" viewBox="0 0 96 120" enable-background="new 0 0 96 96" xml:space="preserve">
    <g fill="#a80841">
        <path d="M28.228,86.25c-1.236,0-2.242,1.006-2.242,2.242s1.006,2.242,2.242,2.242s2.242-1.006,2.242-2.242   S29.464,86.25,28.228,86.25z M28.228,90.234c-0.96,0-1.742-0.782-1.742-1.742s0.782-1.742,1.742-1.742s1.742,0.782,1.742,1.742   S29.188,90.234,28.228,90.234z"/>
        <path d="M79.458,38.442c-0.1-0.481-0.369-0.851-0.776-1.069c-1.694-0.908-3.156,0.812-4.144,2.306l-0.025-9.961   c-0.002-0.776-0.519-1.93-1.932-1.93c-0.701,0-1.124,0.295-1.355,0.542c-0.001,0.001-0.002,0.002-0.003,0.003l-0.002-0.897   c-0.001-0.776-0.518-1.93-1.932-1.93c-0.701,0-1.124,0.295-1.355,0.542c-0.37,0.396-0.467,0.893-0.49,1.172   c-0.308-0.355-0.776-0.615-1.446-0.615c-0.701,0-1.124,0.295-1.355,0.542c-0.535,0.571-0.499,1.352-0.495,1.39v1.531   c-0.308-0.353-0.775-0.609-1.442-0.609c-0.701,0-1.125,0.295-1.356,0.543c-0.077,0.083-0.14,0.169-0.194,0.258   c-0.007-0.059-0.001-0.126-0.013-0.182c-0.11-0.531-0.405-0.938-0.853-1.178c-2.065-1.106-3.875,1.304-5.021,3.115l-0.031-12.38   c-0.002-0.868-0.58-2.16-2.162-2.16c-0.785,0-1.255,0.327-1.512,0.602c-0.102,0.109-0.185,0.224-0.253,0.341l-0.004-1.508   c-0.002-0.868-0.58-2.159-2.161-2.159c-0.785,0-1.255,0.327-1.512,0.602c-0.596,0.637-0.556,1.512-0.551,1.56v0.198   c-0.315-0.569-0.906-1.045-1.867-1.045c-0.785,0-1.255,0.327-1.512,0.602c-0.596,0.637-0.556,1.512-0.551,1.559v2.291   c-0.316-0.568-0.906-1.044-1.867-1.044c-0.785,0-1.255,0.327-1.512,0.602c-0.596,0.637-0.556,1.512-0.551,1.559l-0.001,13.33   l0.018,0.161c0.076,0.347,0.767,3.429,1.458,4.659c0.528,0.939,0.919,2.694,0.999,3.066v1.848   c-0.078-0.007-0.146-0.024-0.231-0.024c-0.962,0-1.553,0.478-1.868,1.047v-0.15c0.006-0.098,0.046-0.972-0.55-1.609   c-0.257-0.274-0.728-0.602-1.512-0.602c-1.582,0-2.159,1.292-2.161,2.159l-0.004,1.509c-0.068-0.117-0.151-0.233-0.253-0.342   c-0.192-0.205-0.504-0.439-0.978-0.545c0.497-1.208,0.937-3.168,0.992-3.42l0.018-0.08l-0.002-11.198   c0.006-0.087,0.042-0.868-0.493-1.439c-0.231-0.248-0.655-0.543-1.356-0.543c-0.668,0-1.136,0.258-1.444,0.612v-1.483   c0.006-0.087,0.042-0.869-0.493-1.44c-0.231-0.248-0.654-0.542-1.355-0.542c-0.671,0-1.14,0.26-1.448,0.617   c-0.024-0.298-0.124-0.785-0.488-1.174c-0.231-0.248-0.654-0.542-1.355-0.542c-1.414,0-1.93,1.154-1.932,1.93l-0.002,0.898   c-0.001-0.001-0.001-0.002-0.002-0.003c-0.231-0.248-0.655-0.542-1.356-0.542c-1.414,0-1.93,1.154-1.932,1.93l-0.026,9.959   c-0.988-1.493-2.45-3.212-4.142-2.304c-0.408,0.218-0.676,0.588-0.776,1.069c-0.523,2.512,4.388,9.019,5.76,10.774v31.788h10.112   h0.66h8.619h3.289h6.034h3.245h8.663h0.66h10.112V49.216C75.069,47.46,79.98,40.954,79.458,38.442z M60.854,32.226l-0.002,10.331   l0.018,0.162c0.056,0.252,0.496,2.212,0.993,3.42c-0.474,0.105-0.785,0.34-0.978,0.545c-0.102,0.109-0.185,0.225-0.253,0.342   l-0.004-1.508c-0.002-0.868-0.579-2.16-2.161-2.16c-0.785,0-1.255,0.327-1.512,0.602c-0.596,0.637-0.556,1.512-0.551,1.56v0.197   c-0.316-0.568-0.906-1.044-1.867-1.044c-0.102,0-0.184,0.019-0.275,0.029v-1.841C55.545,41.22,59.657,35.802,60.854,32.226z    M31.575,79.503h-7.772V48.696l-0.162-0.205c-3.445-4.362-6.12-9.033-5.613-9.797c0.825-0.446,2.173,1.768,2.75,2.713   c0.582,0.953,0.903,1.479,1.564,1.292c0.23-0.064,0.616-0.278,0.616-0.981l0.03-11.986c0.017-0.446,0.308-0.446,0.432-0.446   c0.073,0,0.204,0.008,0.259,0.065c0.066,0.069,0.092,0.228,0.092,0.344c0,0.008,0,0.015,0,0.022v9.675h2.478l0.032-11.956   c0-0.288,0.146-0.434,0.432-0.434c0.073,0,0.203,0.008,0.258,0.065c0.07,0.073,0.095,0.249,0.091,0.366v10.695h2.477l0.033-9.581   c0.017-0.446,0.308-0.446,0.432-0.446c0.073,0,0.203,0.008,0.258,0.065c0.071,0.073,0.095,0.25,0.092,0.367v10.409h2.476   l0.034-7.542c0.017-0.446,0.308-0.446,0.432-0.446c0.073,0,0.204,0.008,0.259,0.065c0.07,0.073,0.095,0.25,0.091,0.367   l0.001,11.084c-0.178,0.793-0.666,2.746-1.058,3.444c-0.094,0.167-0.18,0.356-0.263,0.552c-0.624,0.449-0.883,1.198-0.885,1.77   l-0.033,12.378c-1.146-1.812-2.955-4.22-5.02-3.112c-0.448,0.24-0.743,0.647-0.853,1.178c-0.534,2.565,3.84,8.77,6.044,11.693   L31.575,79.503z M44.674,67.652c-0.707,1.257-1.158,3.484-1.176,3.579l-0.015,8.273h-0.289h-1.5h-7.779v-8.557l-0.162-0.205   c-0.221-0.279-0.448-0.574-0.678-0.876c-0.489-0.643-0.994-1.329-1.494-2.036c-2.486-3.507-4.858-7.489-4.577-8.84   c0.026-0.125,0.064-0.146,0.092-0.161c1.11-0.595,2.708,2.03,3.477,3.291c0.409,0.671,0.696,1.136,1.009,1.361   c0.206,0.148,0.423,0.194,0.694,0.118c0.287-0.081,0.629-0.325,0.629-1.032l0.003-1.415l0.033-12.908   c0-0.185,0.075-0.582,0.558-0.641c0.038-0.005,0.06-0.022,0.103-0.022c0.196,0,0.335,0.042,0.414,0.123   c0.123,0.128,0.15,0.369,0.15,0.505c0,0.012,0,0.022,0,0.033v10.554v0.852h2.667l0.039-14.128c0-0.199,0.065-0.663,0.661-0.663   c0.196,0,0.335,0.042,0.414,0.123c0.134,0.139,0.154,0.413,0.15,0.538V58.14h2.666l0.039-11.296   c0.013-0.447,0.236-0.673,0.662-0.673c0.09,0,0.166,0.011,0.231,0.029c0.077,0.02,0.14,0.05,0.182,0.094   c0.134,0.139,0.154,0.412,0.149,0.538v12.281h1.169h1.497l0.04-8.873c0-0.2,0.066-0.664,0.661-0.664   c0.196,0,0.334,0.042,0.413,0.123c0.134,0.139,0.154,0.413,0.15,0.539l0.001,13.248C45.746,64.43,45.154,66.8,44.674,67.652z    M51.018,79.503h-6.034v-8.05c0.132-0.634,0.526-2.227,0.999-3.066c0.691-1.229,1.381-4.311,1.458-4.658l0.018-0.08l-0.003-13.362   c0.006-0.098,0.046-0.973-0.55-1.61c-0.256-0.274-0.727-0.602-1.511-0.602c-0.962,0-1.553,0.479-1.869,1.048v-2.243   c0.005-0.083,0.032-0.732-0.33-1.317V42.77l-0.015-0.147c-0.019-0.094-0.469-2.32-1.176-3.577   c-0.479-0.852-1.072-3.222-1.283-4.167l0.001-6.096l-0.001-7.202c-0.003-0.047,0.011-0.337,0.148-0.484   c0.079-0.084,0.219-0.126,0.417-0.126c0.426,0,0.648,0.226,0.662,0.664l0.04,8.871h2.665L44.65,18.174   c-0.003-0.047,0.011-0.337,0.148-0.484c0.079-0.084,0.219-0.126,0.417-0.126c0.425,0,0.647,0.226,0.661,0.663l0.039,11.306h2.667   l-0.001-12.662c-0.003-0.085,0.017-0.358,0.151-0.498c0.079-0.082,0.218-0.123,0.414-0.123c0.425,0,0.647,0.226,0.661,0.663   l0.039,14.127h2.667L52.51,19.595c0-0.005,0-0.012,0-0.019c0-0.101,0.026-0.349,0.151-0.479c0.078-0.082,0.217-0.123,0.413-0.123   c0.426,0,0.648,0.227,0.662,0.664l0.036,14.321c0,0.707,0.342,0.951,0.629,1.032c0.688,0.197,1.025-0.365,1.704-1.479   c0.769-1.26,2.374-3.883,3.476-3.291c0.028,0.015,0.067,0.036,0.093,0.162c0.364,1.75-3.728,7.925-6.749,11.751l-0.162,0.205v3.304   c-0.313,0.562-0.292,1.15-0.288,1.189v2.289c-0.316-0.568-0.906-1.044-1.866-1.044c-0.784,0-1.255,0.327-1.511,0.602   c-0.597,0.637-0.557,1.512-0.552,1.56l-0.001,13.33l0.018,0.161c0.076,0.347,0.766,3.428,1.458,4.658   c0.528,0.939,0.919,2.696,0.999,3.067V79.503z M62.926,69.865c-0.23,0.302-0.458,0.597-0.678,0.876l-0.162,0.205v8.557h-7.823h-1.5   h-0.245v-8.126l-0.015-0.147c-0.019-0.094-0.469-2.321-1.176-3.579c-0.479-0.852-1.071-3.222-1.283-4.166l0.001-6.096l-0.001-7.192   c-0.003-0.085,0.017-0.359,0.151-0.498c0.079-0.082,0.217-0.123,0.413-0.123c0.426,0,0.648,0.227,0.661,0.665l0.04,8.872h1.453   h1.212l-0.001-12.322c-0.003-0.085,0.017-0.358,0.151-0.498c0.033-0.035,0.083-0.058,0.138-0.078   c0.074-0.027,0.163-0.045,0.275-0.045c0.426,0,0.648,0.226,0.662,0.664l0.039,11.306h2.666l-0.001-12.662   c-0.003-0.085,0.017-0.358,0.151-0.498c0.079-0.082,0.218-0.123,0.414-0.123c0.425,0,0.647,0.226,0.661,0.663l0.039,14.127h2.667   v-0.852l-0.001-10.594c0-0.005,0-0.012,0-0.019c0-0.101,0.026-0.348,0.151-0.478c0.079-0.082,0.218-0.123,0.414-0.123   c0.038,0,0.066,0.011,0.101,0.015c0.354,0.037,0.548,0.25,0.561,0.647l0.033,12.908l0.003,1.415c0,0.707,0.342,0.951,0.629,1.032   c0.275,0.077,0.494,0.028,0.702-0.124c0.311-0.227,0.595-0.688,1.001-1.355c0.769-1.261,2.37-3.886,3.477-3.291   c0.028,0.015,0.066,0.036,0.092,0.161c0.281,1.349-2.087,5.326-4.571,8.832C63.923,68.531,63.417,69.22,62.926,69.865z    M72.359,48.492l-0.162,0.205v30.807h-7.772v-9.132c2.205-2.925,6.573-9.124,6.04-11.687c-0.11-0.531-0.405-0.938-0.853-1.178   c-2.067-1.108-3.875,1.304-5.022,3.115l-0.031-12.381c-0.001-0.572-0.261-1.321-0.884-1.77c-0.083-0.196-0.169-0.385-0.263-0.552   c-0.393-0.697-0.881-2.65-1.06-3.445l0.002-5.093l-0.001-6.03c-0.002-0.079,0.022-0.255,0.092-0.328   c0.055-0.057,0.186-0.065,0.259-0.065c0.125,0,0.416,0,0.432,0.436l0.034,7.552h2.476l-0.001-10.447   c-0.002-0.079,0.022-0.255,0.093-0.329c0.055-0.057,0.186-0.065,0.259-0.065c0.125,0,0.416,0,0.432,0.435l0.033,9.592h2.477   l-0.001-10.746c-0.002-0.034,0.015-0.232,0.091-0.314c0.054-0.058,0.186-0.067,0.26-0.067c0.125,0,0.416,0,0.432,0.434   l0.032,11.956h2.479l-0.001-9.714c0-0.003,0-0.007,0-0.012c0-0.083,0.025-0.247,0.093-0.316c0.055-0.057,0.186-0.065,0.258-0.065   c0.125,0,0.416,0,0.432,0.434l0.03,11.996c0,0.705,0.386,0.918,0.616,0.983c0.66,0.186,0.982-0.339,1.564-1.292   c0.576-0.944,1.923-3.153,2.748-2.717C78.479,39.458,75.804,44.129,72.359,48.492z"/>
        <path d="M8.512,27.812L7.521,29.82l-2.216,0.322l1.604,1.563L6.53,33.912l1.982-1.042l1.982,1.042l-0.378-2.207l1.604-1.563   L9.503,29.82L8.512,27.812z M9.578,31.53l0.251,1.468l-1.318-0.692l-1.318,0.692l0.251-1.468l-1.066-1.04l1.474-0.214l0.659-1.335   l0.659,1.335l1.474,0.214L9.578,31.53z"/>
        <path d="M26.923,11.03l1.368-0.719l1.368,0.719l-0.261-1.523l1.107-1.079l-1.53-0.223l-0.684-1.386l-0.684,1.386l-1.53,0.223   l1.107,1.079L26.923,11.03z M27.151,8.776l0.788-0.114l0.352-0.713l0.352,0.713l0.788,0.114l-0.57,0.556l0.134,0.784l-0.704-0.37   l-0.704,0.37l0.134-0.784L27.151,8.776z"/>
        <path d="M87.086,69.95l1.368,0.719l-0.261-1.523l1.107-1.079l-1.53-0.223l-0.684-1.386l-0.684,1.386l-1.53,0.223l1.107,1.079   l-0.261,1.523L87.086,69.95z M85.947,68.416l0.788-0.114l0.352-0.713l0.352,0.713l0.788,0.114l-0.57,0.556l0.134,0.784l-0.704-0.37   l-0.704,0.37l0.134-0.784L85.947,68.416z"/>
        <path d="M87.086,14.135l-0.902,2.777h-2.919l2.361,1.717l-0.902,2.776l2.362-1.716l2.362,1.716l-0.902-2.776l2.361-1.717h-2.919   L87.086,14.135z M87.958,18.438l0.539,1.658l-1.411-1.025l-1.411,1.025l0.539-1.658l-1.411-1.026h1.745l0.539-1.659l0.539,1.659   h1.745L87.958,18.438z"/>
        <path d="M79.13,5.267c-1.236,0-2.242,1.006-2.242,2.242s1.006,2.242,2.242,2.242s2.242-1.006,2.242-2.242S80.367,5.267,79.13,5.267   z M79.13,9.251c-0.96,0-1.742-0.782-1.742-1.742s0.782-1.742,1.742-1.742s1.742,0.782,1.742,1.742S80.091,9.251,79.13,9.251z"/>
        <path d="M88.623,47.2c-0.985,0-1.786,0.801-1.786,1.786s0.801,1.786,1.786,1.786s1.786-0.801,1.786-1.786S89.607,47.2,88.623,47.2z    M88.623,50.272c-0.709,0-1.286-0.577-1.286-1.286s0.577-1.286,1.286-1.286s1.286,0.577,1.286,1.286S89.332,50.272,88.623,50.272z"/>
        <path d="M14.958,19.516c1.302,0,2.361-1.059,2.361-2.361s-1.059-2.361-2.361-2.361s-2.361,1.059-2.361,2.361   S13.656,19.516,14.958,19.516z M14.958,15.294c1.026,0,1.861,0.835,1.861,1.861s-0.835,1.861-1.861,1.861s-1.861-0.835-1.861-1.861   S13.932,15.294,14.958,15.294z"/>
        <path d="M21.983,88.514c0.326,0.083,0.655,0.156,0.988,0.223l0.099-0.49c-0.325-0.065-0.646-0.138-0.964-0.217L21.983,88.514z"/>
        <path d="M6.864,71.81c0.097,0.653,0.228,1.309,0.388,1.95l0.485-0.122c-0.157-0.625-0.285-1.265-0.379-1.901L6.864,71.81z"/>
        <path d="M18.24,87.172c0.597,0.283,1.216,0.54,1.838,0.763l0.169-0.471c-0.607-0.217-1.21-0.468-1.793-0.744L18.24,87.172z"/>
        <path d="M7.146,68.852c0-0.327,0.008-0.655,0.024-0.985l-0.499-0.024c-0.017,0.337-0.025,0.674-0.025,1.009   c0,0.328,0.008,0.655,0.024,0.98l0.499-0.024C7.153,69.49,7.146,69.171,7.146,68.852z"/>
        <path d="M11.893,82.448c0.441,0.49,0.914,0.964,1.404,1.41l0.337-0.37c-0.478-0.435-0.939-0.897-1.37-1.375L11.893,82.448z"/>
        <path d="M7.83,75.663C8.052,76.282,8.308,76.9,8.592,77.5l0.452-0.214c-0.277-0.585-0.527-1.188-0.743-1.792L7.83,75.663z"/>
        <path d="M9.529,79.253c0.339,0.567,0.711,1.124,1.104,1.655l0.402-0.297c-0.383-0.519-0.746-1.062-1.077-1.615L9.529,79.253z"/>
        <path d="M14.832,85.124c0.532,0.396,1.088,0.769,1.653,1.108l0.258-0.429c-0.551-0.331-1.093-0.695-1.612-1.081L14.832,85.124z"/>
        <path d="M7.533,64.949l-0.49-0.098c-0.066,0.333-0.125,0.665-0.174,0.998l0.494,0.073C7.412,65.598,7.469,65.273,7.533,64.949z"/>
        <path d="M89.182,76.982l0.498,0.046c0.031-0.336,0.05-0.675,0.057-1.017l-0.5-0.01C89.229,76.331,89.211,76.658,89.182,76.982z"/>
        <path d="M85.817,84.731l0.374,0.332c0.493-0.555,0.944-1.152,1.342-1.773l-0.421-0.27C86.729,83.62,86.293,84.195,85.817,84.731z"/>
        <path d="M82.51,87.441l0.252,0.432c0.639-0.373,1.253-0.8,1.826-1.27l-0.317-0.387C83.718,86.669,83.125,87.082,82.51,87.441z"/>
        <path d="M88.121,81.128l0.459,0.199c0.295-0.679,0.538-1.387,0.721-2.104l-0.484-0.124C88.639,79.791,88.405,80.473,88.121,81.128z   "/>
        <path d="M78.523,88.985l0.104,0.489c0.723-0.154,1.439-0.368,2.131-0.636l-0.181-0.466C79.912,88.631,79.22,88.837,78.523,88.985z"/>
        <path d="M75.408,89.28l-0.01,0.5c0.096,0.002,0.192,0.003,0.288,0.003c0.245,0,0.488-0.006,0.73-0.019l-0.025-0.499   C76.065,89.282,75.739,89.289,75.408,89.28z"/>
        <rect x="88.373" y="36.377" width="0.5" height="2"/>
        <rect x="88.373" y="28.377" width="0.5" height="2"/>
        <rect x="88.373" y="40.377" width="0.5" height="2"/>
        <rect x="88.373" y="32.377" width="0.5" height="2"/>
    </g>
</svg>