<svg xmlns="http://www.w3.org/2000/svg" 
    xmlns:xlink="http://www.w3.org/1999/xlink" version="1.1" x="0px" y="0px" viewBox="0 0 96 120" enable-background="new 0 0 96 96" xml:space="preserve">
    <g fill="#a80841">
    <path d="M71.355,60.873c-4.23,0-7.84,2.674-9.251,6.417l-8.638-2.517c0.492-1.738,0.76-3.547,0.76-5.4  c0-5.855-2.578-11.107-6.642-14.726l8.815-7.019c2.371,2.239,5.475,3.507,8.813,3.507c3.783,0,7.269-1.621,9.724-4.453l0.035,0.042  l0.562-0.748l0.361-0.48l-0.017-0.02c1.458-2.14,2.234-4.627,2.234-7.239c0-7.112-5.787-12.898-12.899-12.898  c-7.111,0-12.897,5.786-12.897,12.898c0,2.614,0.777,5.101,2.234,7.24l-0.016,0.019l0.354,0.47c0.002,0.004,0.005,0.008,0.008,0.012  l0.438,0.582l-8.934,7.113c-3.18-2.418-7.103-3.893-11.368-4.01l-1.876-5.469c1.465-0.446,2.79-1.265,3.852-2.411l0.035,0.042  l0.562-0.748l0.361-0.48l-0.017-0.02c0.924-1.422,1.412-3.058,1.412-4.771c0-4.843-3.94-8.782-8.783-8.782  c-4.842,0-8.781,3.939-8.781,8.782c0,1.716,0.488,3.352,1.411,4.771l-0.016,0.019l0.354,0.47c0.002,0.004,0.005,0.008,0.008,0.012  l0.563,0.747l0.035-0.041c1.657,1.791,3.951,2.806,6.427,2.806c0.373,0,0.741-0.026,1.104-0.072l1.773,5.17  C23.054,40.229,14.75,48.839,14.75,59.373c0,4.106,1.253,8.011,3.604,11.345l-0.017,0.02l0.361,0.48l0.562,0.748l0.018-0.021  c3.766,4.564,9.256,7.167,15.211,7.167s11.445-2.603,15.211-7.167l0.018,0.021l0.562-0.748l0.361-0.48l-0.017-0.019  c0.996-1.413,1.792-2.928,2.379-4.519l8.673,2.526c-0.139,0.659-0.214,1.341-0.214,2.041c0,1.958,0.566,3.823,1.634,5.438  l-0.016,0.019l0.353,0.47c0.003,0.004,0.006,0.008,0.009,0.012l0.563,0.747l0.035-0.041c1.872,2.071,4.486,3.25,7.317,3.25  c2.83,0,5.444-1.18,7.318-3.251l0.035,0.042l0.562-0.748l0.361-0.48l-0.017-0.02c1.068-1.616,1.635-3.481,1.635-5.437  C81.25,65.312,76.812,60.873,71.355,60.873z M65.214,39.636c-3.397,0-6.535-1.467-8.708-4.045c0.044-0.037,0.088-0.075,0.135-0.112  s0.094-0.075,0.145-0.112c0.081-0.062,0.167-0.121,0.255-0.181c0.051-0.035,0.1-0.07,0.152-0.104c0.098-0.064,0.2-0.127,0.304-0.189  c0.05-0.03,0.097-0.061,0.146-0.09c0.128-0.075,0.261-0.149,0.396-0.223c0.03-0.017,0.059-0.033,0.089-0.05  c0.17-0.091,0.345-0.18,0.522-0.268c0.02-0.01,0.04-0.02,0.061-0.029c0.155-0.076,0.313-0.151,0.473-0.225  c0.061-0.028,0.121-0.055,0.182-0.082c0.121-0.055,0.242-0.108,0.364-0.161c0.07-0.031,0.142-0.061,0.212-0.091  c0.113-0.047,0.227-0.095,0.339-0.141c0.074-0.03,0.147-0.06,0.221-0.09c0.109-0.043,0.218-0.087,0.326-0.129  c0.074-0.028,0.147-0.057,0.221-0.085c0.104-0.039,0.207-0.078,0.309-0.116c0.076-0.027,0.152-0.056,0.227-0.083  c0.095-0.034,0.187-0.067,0.278-0.1c0.076-0.027,0.152-0.054,0.226-0.08c0.091-0.031,0.179-0.061,0.265-0.091  c0.067-0.022,0.135-0.045,0.199-0.066c0.089-0.029,0.172-0.057,0.256-0.084c0.059-0.019,0.118-0.039,0.174-0.057  c0.08-0.025,0.152-0.048,0.227-0.07c0.053-0.017,0.108-0.034,0.157-0.049c0.116-0.035,0.225-0.067,0.321-0.095l0.544-0.156v-2.646  l-0.478-0.186c-1.889-0.737-3.157-2.786-3.157-5.1c0-2.966,2.072-5.379,4.619-5.379c2.548,0,4.62,2.413,4.62,5.379  c0,2.313-1.269,4.363-3.157,5.099l-0.478,0.187v2.646l0.544,0.155c0.097,0.027,0.206,0.06,0.321,0.095  c0.049,0.015,0.104,0.032,0.154,0.048c0.075,0.023,0.149,0.046,0.23,0.071c0.055,0.018,0.113,0.037,0.17,0.056  c0.085,0.027,0.17,0.055,0.261,0.085c0.063,0.021,0.128,0.043,0.193,0.065c0.089,0.03,0.179,0.061,0.271,0.093  c0.072,0.025,0.146,0.052,0.222,0.078c0.092,0.033,0.186,0.066,0.281,0.101c0.073,0.027,0.148,0.055,0.224,0.083  c0.104,0.038,0.208,0.077,0.313,0.117c0.071,0.027,0.144,0.056,0.216,0.084c0.11,0.042,0.221,0.086,0.331,0.131  c0.072,0.028,0.145,0.057,0.217,0.087c0.115,0.047,0.231,0.097,0.348,0.146c0.067,0.028,0.135,0.057,0.201,0.085  c0.127,0.056,0.254,0.112,0.38,0.169c0.056,0.025,0.112,0.05,0.167,0.075c0.168,0.077,0.334,0.156,0.497,0.236  c0.013,0.006,0.025,0.012,0.037,0.018c0.179,0.088,0.354,0.179,0.525,0.27c0.026,0.014,0.05,0.028,0.076,0.042  c0.14,0.076,0.276,0.152,0.408,0.229c0.049,0.029,0.095,0.058,0.143,0.087c0.105,0.063,0.209,0.128,0.309,0.192  c0.052,0.034,0.101,0.068,0.15,0.103c0.088,0.061,0.175,0.121,0.257,0.183c0.05,0.037,0.096,0.074,0.143,0.112  c0.048,0.037,0.092,0.074,0.136,0.112C71.75,38.169,68.611,39.636,65.214,39.636z M53.816,28.237  c0-6.285,5.113-11.398,11.397-11.398c6.286,0,11.399,5.113,11.399,11.398c0,2.204-0.618,4.312-1.795,6.144  c-0.006-0.005-0.015-0.01-0.021-0.015c-0.224-0.182-0.473-0.357-0.733-0.528c-0.043-0.028-0.085-0.057-0.129-0.085  c-0.259-0.164-0.529-0.324-0.812-0.478c-0.052-0.028-0.103-0.056-0.155-0.084c-0.286-0.153-0.578-0.301-0.875-0.442  c-0.039-0.019-0.079-0.036-0.118-0.055c-0.296-0.138-0.593-0.271-0.888-0.396c-0.022-0.01-0.046-0.021-0.068-0.03  c-0.304-0.128-0.6-0.246-0.89-0.358c-0.05-0.02-0.1-0.039-0.149-0.058c-0.275-0.105-0.539-0.203-0.79-0.293  c-0.052-0.019-0.1-0.035-0.15-0.053c-0.245-0.087-0.475-0.165-0.683-0.234c-0.036-0.013-0.065-0.021-0.101-0.033  c-0.208-0.068-0.401-0.131-0.558-0.18v-0.522c2.193-1.095,3.635-3.552,3.635-6.285c0-3.793-2.745-6.879-6.12-6.879  c-3.374,0-6.119,3.086-6.119,6.879c0,2.732,1.441,5.19,3.635,6.285v0.522c-0.159,0.05-0.354,0.112-0.567,0.183  c-0.03,0.01-0.055,0.019-0.086,0.028c-0.212,0.07-0.446,0.151-0.696,0.239c-0.045,0.016-0.088,0.031-0.134,0.048  c-0.257,0.092-0.527,0.191-0.811,0.3c-0.039,0.015-0.078,0.03-0.118,0.046c-0.298,0.115-0.604,0.237-0.916,0.369  c-0.013,0.006-0.025,0.011-0.038,0.017c-0.309,0.131-0.62,0.27-0.93,0.415c-0.03,0.015-0.06,0.027-0.09,0.042  c-0.303,0.143-0.6,0.294-0.891,0.449c-0.048,0.026-0.096,0.051-0.143,0.077c-0.284,0.155-0.559,0.316-0.818,0.482  c-0.042,0.027-0.082,0.054-0.123,0.081c-0.263,0.172-0.512,0.349-0.736,0.53c-0.007,0.005-0.015,0.01-0.021,0.015  C54.435,32.55,53.816,30.443,53.816,28.237z M37.862,25.807c0,1.313-0.344,2.574-1.001,3.688c-0.081-0.06-0.173-0.115-0.26-0.173  c-0.06-0.04-0.116-0.08-0.178-0.119c-0.177-0.111-0.361-0.218-0.552-0.321c-0.027-0.015-0.053-0.031-0.08-0.046  c-0.225-0.119-0.455-0.232-0.688-0.341c-0.055-0.025-0.108-0.048-0.163-0.073c-0.177-0.079-0.351-0.155-0.524-0.228  c-0.077-0.032-0.15-0.062-0.227-0.092c-0.151-0.062-0.299-0.119-0.444-0.174c-0.073-0.028-0.144-0.055-0.214-0.081  c-0.146-0.054-0.283-0.102-0.417-0.148c-0.055-0.019-0.11-0.039-0.162-0.057c-0.175-0.06-0.338-0.113-0.477-0.157v-0.004  c1.456-0.799,2.403-2.465,2.403-4.309c0-0.301-0.032-0.592-0.079-0.877c-0.015-0.088-0.036-0.171-0.055-0.257  c-0.044-0.2-0.098-0.396-0.163-0.585c-0.03-0.086-0.059-0.17-0.093-0.254c-0.083-0.205-0.18-0.401-0.287-0.591  c-0.027-0.048-0.05-0.1-0.079-0.146c-0.141-0.229-0.3-0.442-0.473-0.641c-0.047-0.053-0.098-0.099-0.146-0.148  c-0.136-0.142-0.277-0.274-0.429-0.396c-0.067-0.055-0.137-0.105-0.207-0.155c-0.153-0.108-0.313-0.204-0.479-0.291  c-0.066-0.034-0.13-0.073-0.198-0.104c-0.025-0.012-0.048-0.028-0.073-0.039C35.397,19.396,37.862,22.319,37.862,25.807z   M24.554,29.324c-0.085,0.058-0.175,0.112-0.255,0.171c-0.657-1.112-1.001-2.373-1.001-3.688c0-3.487,2.464-6.41,5.742-7.118  c-0.025,0.011-0.049,0.027-0.074,0.039c-0.067,0.031-0.13,0.069-0.196,0.104c-0.166,0.086-0.327,0.183-0.48,0.291  c-0.07,0.05-0.139,0.101-0.206,0.154c-0.152,0.122-0.295,0.256-0.432,0.398c-0.047,0.049-0.098,0.094-0.144,0.146  c-0.174,0.199-0.333,0.412-0.474,0.642c-0.028,0.046-0.05,0.097-0.076,0.144c-0.108,0.19-0.206,0.388-0.29,0.595  c-0.033,0.083-0.063,0.167-0.092,0.252c-0.065,0.19-0.119,0.386-0.163,0.587c-0.019,0.085-0.04,0.168-0.055,0.255  c-0.047,0.285-0.079,0.577-0.079,0.878c0,1.844,0.947,3.51,2.402,4.309v0.004c-0.139,0.044-0.302,0.098-0.477,0.157  c-0.052,0.018-0.106,0.037-0.16,0.056c-0.135,0.047-0.272,0.097-0.42,0.15c-0.07,0.025-0.139,0.052-0.21,0.079  c-0.147,0.055-0.297,0.114-0.451,0.176c-0.074,0.03-0.146,0.059-0.22,0.09c-0.177,0.073-0.354,0.151-0.533,0.232  c-0.052,0.023-0.104,0.045-0.155,0.068c-0.232,0.108-0.464,0.223-0.688,0.342c-0.027,0.015-0.053,0.031-0.08,0.046  c-0.189,0.103-0.374,0.21-0.551,0.321C24.673,29.242,24.615,29.284,24.554,29.324z M30.579,33.09c-2.083,0-4.013-0.862-5.392-2.389  c0.154-0.113,0.324-0.226,0.511-0.336c0.05-0.029,0.105-0.057,0.157-0.085c0.151-0.085,0.307-0.17,0.471-0.251  c0.087-0.043,0.177-0.084,0.267-0.126c0.137-0.064,0.273-0.128,0.414-0.189c0.098-0.043,0.196-0.084,0.294-0.124  c0.135-0.057,0.269-0.111,0.402-0.163c0.097-0.038,0.192-0.075,0.287-0.11c0.134-0.051,0.264-0.099,0.392-0.144  c0.084-0.03,0.169-0.062,0.249-0.089c0.136-0.047,0.261-0.088,0.382-0.128c0.059-0.019,0.124-0.041,0.179-0.059  c0.168-0.054,0.322-0.101,0.446-0.136l0.544-0.155v-2.113l-0.478-0.186c-1.151-0.45-1.925-1.71-1.925-3.135  c0-1.821,1.256-3.303,2.8-3.303s2.801,1.481,2.801,3.303c0,1.426-0.773,2.686-1.926,3.134l-0.478,0.187v2.113l0.544,0.156  c0.172,0.049,0.361,0.107,0.56,0.171c0.069,0.022,0.144,0.048,0.216,0.072c0.133,0.044,0.267,0.09,0.406,0.139  c0.089,0.031,0.18,0.065,0.271,0.099c0.131,0.048,0.261,0.098,0.393,0.149c0.097,0.037,0.191,0.075,0.288,0.113  c0.132,0.055,0.264,0.11,0.395,0.166c0.093,0.04,0.185,0.08,0.276,0.121c0.142,0.064,0.278,0.13,0.415,0.197  c0.074,0.036,0.151,0.071,0.224,0.108c0.2,0.103,0.391,0.207,0.566,0.313c0.041,0.024,0.074,0.049,0.113,0.074  c0.116,0.073,0.226,0.146,0.326,0.221C34.589,32.229,32.66,33.09,30.579,33.09z M34.488,77.612c-5.575,0-10.712-2.465-14.195-6.787  c0.03-0.028,0.055-0.059,0.087-0.087c0.095-0.087,0.2-0.173,0.304-0.259c0.122-0.102,0.244-0.203,0.377-0.304  c0.114-0.085,0.235-0.169,0.356-0.254c0.142-0.098,0.283-0.195,0.433-0.292c0.13-0.083,0.265-0.165,0.399-0.247  c0.155-0.094,0.313-0.188,0.474-0.279c0.143-0.08,0.288-0.16,0.435-0.238c0.165-0.09,0.333-0.179,0.503-0.266  c0.15-0.076,0.302-0.152,0.455-0.227c0.174-0.086,0.35-0.17,0.526-0.253c0.154-0.072,0.309-0.144,0.464-0.214  c0.179-0.08,0.356-0.159,0.535-0.236c0.155-0.067,0.311-0.135,0.466-0.199c0.179-0.075,0.356-0.148,0.533-0.221  c0.153-0.062,0.306-0.123,0.456-0.183c0.175-0.069,0.348-0.136,0.52-0.202c0.146-0.056,0.293-0.112,0.436-0.166  c0.168-0.063,0.331-0.122,0.493-0.181c0.139-0.051,0.277-0.102,0.41-0.148c0.155-0.056,0.303-0.106,0.449-0.157  c0.126-0.044,0.255-0.089,0.374-0.13c0.141-0.048,0.271-0.091,0.401-0.134c0.108-0.037,0.224-0.075,0.324-0.108  c0.124-0.04,0.232-0.075,0.344-0.11c0.087-0.028,0.182-0.059,0.261-0.084c0.097-0.03,0.174-0.054,0.256-0.079  c0.07-0.022,0.152-0.048,0.212-0.065c0.055-0.017,0.089-0.027,0.134-0.04c0.154-0.047,0.266-0.079,0.274-0.082l0.544-0.155v-3.531  l-0.478-0.187c-3.113-1.214-5.205-4.573-5.205-8.36c0-4.87,3.429-8.832,7.644-8.832s7.644,3.962,7.644,8.832  c0,3.787-2.092,7.146-5.205,8.36l-0.478,0.187v3.531l0.544,0.155c0.006,0.002,0.049,0.014,0.113,0.033  c0.022,0.007,0.067,0.021,0.097,0.029c0.061,0.018,0.121,0.036,0.208,0.062c0.043,0.014,0.104,0.032,0.152,0.048  c0.097,0.029,0.193,0.06,0.311,0.097c0.068,0.021,0.15,0.048,0.225,0.071c0.122,0.039,0.244,0.078,0.383,0.124  c0.088,0.028,0.188,0.062,0.281,0.093c0.145,0.048,0.29,0.097,0.448,0.15c0.104,0.035,0.215,0.074,0.324,0.112  c0.163,0.057,0.328,0.114,0.502,0.176c0.118,0.042,0.242,0.087,0.363,0.132c0.177,0.063,0.354,0.129,0.538,0.197  c0.131,0.049,0.266,0.101,0.399,0.151c0.183,0.07,0.367,0.142,0.555,0.216c0.141,0.056,0.283,0.113,0.426,0.171  c0.188,0.076,0.375,0.153,0.563,0.232c0.146,0.062,0.292,0.125,0.438,0.188c0.188,0.081,0.375,0.163,0.562,0.248  c0.147,0.066,0.295,0.135,0.442,0.203c0.184,0.086,0.366,0.174,0.547,0.263c0.146,0.071,0.292,0.145,0.437,0.218  c0.176,0.09,0.35,0.182,0.521,0.274c0.142,0.076,0.282,0.153,0.419,0.23c0.166,0.095,0.326,0.19,0.485,0.286  c0.133,0.08,0.265,0.16,0.392,0.242c0.151,0.097,0.294,0.196,0.437,0.295c0.12,0.084,0.241,0.167,0.354,0.252  c0.135,0.101,0.257,0.203,0.38,0.306c0.104,0.085,0.208,0.171,0.303,0.257c0.031,0.029,0.056,0.059,0.087,0.088  C45.2,75.147,40.063,77.612,34.488,77.612z M49.587,69.607c-0.101-0.091-0.215-0.179-0.323-0.269  c-0.085-0.07-0.165-0.142-0.254-0.211c-0.154-0.12-0.32-0.237-0.486-0.354c-0.075-0.053-0.145-0.107-0.222-0.16  c-0.246-0.167-0.501-0.33-0.766-0.491c-0.09-0.054-0.185-0.106-0.276-0.159c-0.182-0.107-0.363-0.214-0.552-0.318  c-0.118-0.065-0.241-0.128-0.362-0.192c-0.166-0.089-0.332-0.178-0.502-0.264c-0.132-0.066-0.264-0.13-0.396-0.194  c-0.164-0.081-0.327-0.161-0.492-0.238c-0.14-0.065-0.277-0.128-0.417-0.191c-0.16-0.073-0.32-0.146-0.48-0.217  c-0.142-0.063-0.282-0.122-0.423-0.183c-0.159-0.068-0.316-0.135-0.475-0.2c-0.14-0.059-0.277-0.114-0.415-0.17  c-0.157-0.063-0.312-0.126-0.466-0.187c-0.134-0.052-0.266-0.104-0.397-0.154c-0.154-0.059-0.305-0.116-0.454-0.172  c-0.128-0.048-0.253-0.095-0.378-0.141c-0.145-0.053-0.284-0.103-0.424-0.153c-0.119-0.042-0.237-0.085-0.353-0.125  c-0.14-0.049-0.271-0.095-0.402-0.14c-0.104-0.036-0.21-0.072-0.309-0.105c-0.133-0.045-0.254-0.085-0.378-0.126  c-0.086-0.028-0.175-0.058-0.257-0.084c-0.128-0.042-0.241-0.078-0.356-0.115c-0.061-0.02-0.128-0.041-0.186-0.059  c-0.163-0.052-0.31-0.098-0.437-0.136v-1.397c3.42-1.578,5.683-5.348,5.683-9.555c0-5.697-4.102-10.332-9.144-10.332  s-9.144,4.635-9.144,10.332c0,4.207,2.263,7.977,5.683,9.556v1.396c-0.127,0.038-0.273,0.084-0.437,0.136  c-0.058,0.018-0.125,0.039-0.186,0.059c-0.115,0.037-0.229,0.073-0.356,0.115c-0.082,0.026-0.171,0.056-0.257,0.084  c-0.124,0.041-0.245,0.081-0.378,0.126c-0.099,0.033-0.204,0.069-0.309,0.105c-0.132,0.045-0.263,0.091-0.402,0.14  c-0.115,0.04-0.233,0.083-0.353,0.125c-0.14,0.051-0.279,0.101-0.424,0.153c-0.125,0.046-0.25,0.093-0.378,0.141  c-0.149,0.056-0.3,0.113-0.454,0.172c-0.132,0.051-0.264,0.103-0.397,0.154c-0.154,0.061-0.309,0.123-0.466,0.187  c-0.138,0.056-0.275,0.111-0.415,0.17c-0.158,0.065-0.315,0.132-0.475,0.2c-0.141,0.061-0.281,0.12-0.423,0.183  c-0.16,0.07-0.32,0.144-0.48,0.217c-0.14,0.063-0.277,0.126-0.417,0.191c-0.165,0.077-0.328,0.157-0.492,0.238  c-0.133,0.064-0.265,0.128-0.396,0.194c-0.17,0.086-0.336,0.175-0.502,0.264c-0.121,0.064-0.244,0.127-0.362,0.192  c-0.188,0.104-0.37,0.211-0.552,0.318c-0.092,0.053-0.187,0.105-0.276,0.159c-0.265,0.161-0.52,0.324-0.766,0.491  c-0.077,0.053-0.146,0.107-0.222,0.16c-0.166,0.117-0.332,0.234-0.486,0.354c-0.089,0.069-0.169,0.141-0.254,0.211  c-0.108,0.09-0.223,0.178-0.323,0.269c-2.057-3.024-3.14-6.544-3.14-10.234c0-10.056,8.182-18.237,18.238-18.237  s18.238,8.182,18.238,18.237C52.727,63.064,51.644,66.584,49.587,69.607z M71.355,79.161c-2.44,0-4.698-1.025-6.292-2.835  c0.007-0.006,0.011-0.011,0.018-0.017c0.052-0.039,0.117-0.078,0.174-0.118c0.139-0.098,0.28-0.195,0.44-0.29  c0.093-0.056,0.195-0.109,0.294-0.164c0.139-0.077,0.277-0.153,0.425-0.228c0.115-0.057,0.232-0.112,0.351-0.168  c0.143-0.066,0.286-0.134,0.432-0.197c0.123-0.054,0.246-0.106,0.37-0.158c0.145-0.061,0.287-0.118,0.431-0.175  c0.122-0.048,0.243-0.096,0.362-0.141c0.143-0.054,0.281-0.104,0.418-0.153c0.107-0.039,0.217-0.079,0.319-0.114  c0.146-0.051,0.28-0.095,0.412-0.138c0.077-0.025,0.161-0.055,0.233-0.077c0.193-0.062,0.37-0.115,0.513-0.156l0.544-0.155V71.62  l-0.478-0.187c-1.351-0.528-2.258-2.001-2.258-3.665c0-2.131,1.477-3.865,3.292-3.865s3.292,1.734,3.292,3.865  c0,1.664-0.908,3.137-2.259,3.665l-0.478,0.187v2.257l0.544,0.155c0.143,0.041,0.32,0.095,0.515,0.156  c0.068,0.022,0.15,0.05,0.225,0.074c0.135,0.044,0.272,0.09,0.421,0.142c0.1,0.034,0.207,0.073,0.312,0.11  c0.14,0.051,0.281,0.103,0.429,0.157c0.115,0.044,0.233,0.091,0.353,0.138c0.146,0.058,0.294,0.117,0.441,0.179  c0.12,0.05,0.24,0.102,0.359,0.153c0.151,0.066,0.299,0.135,0.447,0.205c0.112,0.053,0.226,0.105,0.335,0.161  c0.154,0.076,0.299,0.156,0.443,0.236c0.094,0.052,0.19,0.103,0.278,0.154c0.167,0.101,0.316,0.202,0.46,0.305  c0.05,0.035,0.109,0.069,0.155,0.105c0.008,0.005,0.011,0.011,0.019,0.017C76.052,78.136,73.795,79.161,71.355,79.161z   M78.536,75.117c-0.13-0.099-0.276-0.193-0.42-0.288c-0.052-0.034-0.099-0.07-0.152-0.104c-0.234-0.147-0.481-0.289-0.736-0.425  c-0.065-0.034-0.133-0.065-0.199-0.1c-0.193-0.099-0.388-0.195-0.586-0.287c-0.103-0.047-0.202-0.091-0.305-0.136  c-0.164-0.072-0.325-0.143-0.486-0.21c-0.11-0.045-0.216-0.088-0.324-0.131c-0.15-0.06-0.295-0.116-0.439-0.17  c-0.104-0.039-0.203-0.077-0.303-0.112c-0.146-0.054-0.282-0.102-0.416-0.147c-0.079-0.027-0.159-0.056-0.232-0.08  c-0.194-0.065-0.374-0.124-0.525-0.172v-0.144c1.655-0.88,2.736-2.76,2.736-4.843c0-2.958-2.149-5.365-4.792-5.365  s-4.792,2.407-4.792,5.365c0,2.083,1.08,3.963,2.735,4.843v0.144c-0.154,0.049-0.338,0.108-0.537,0.176  c-0.057,0.019-0.118,0.041-0.178,0.062c-0.153,0.053-0.31,0.107-0.479,0.169c-0.083,0.03-0.166,0.062-0.252,0.094  c-0.161,0.061-0.324,0.124-0.494,0.191c-0.095,0.038-0.187,0.075-0.282,0.114c-0.176,0.072-0.351,0.149-0.529,0.229  c-0.091,0.04-0.18,0.078-0.271,0.12c-0.212,0.099-0.422,0.202-0.63,0.309c-0.053,0.027-0.106,0.052-0.158,0.08  c-0.259,0.137-0.509,0.28-0.746,0.43c-0.045,0.028-0.083,0.059-0.127,0.087c-0.152,0.1-0.305,0.199-0.441,0.303  c-0.796-1.307-1.213-2.795-1.213-4.35c0-4.629,3.766-8.395,8.395-8.395s8.395,3.766,8.395,8.395  C79.75,72.32,79.333,73.809,78.536,75.117z"/>
    <path d="M28.229,86.25c-1.236,0-2.242,1.006-2.242,2.242s1.006,2.242,2.242,2.242s2.242-1.006,2.242-2.242  S29.465,86.25,28.229,86.25z M28.229,90.234c-0.961,0-1.742-0.781-1.742-1.742s0.781-1.742,1.742-1.742s1.742,0.781,1.742,1.742  S29.189,90.234,28.229,90.234z"/>
    <path d="M8.512,27.813l-0.99,2.008l-2.218,0.321l1.605,1.563L6.53,33.912l1.981-1.042l1.982,1.042l-0.378-2.208l1.603-1.563  L9.504,29.82L8.512,27.813z M9.579,31.53l0.251,1.468l-1.318-0.692l-1.317,0.692l0.252-1.468L6.38,30.491l1.474-0.214l0.658-1.336  l0.66,1.336l1.473,0.214L9.579,31.53z"/>
    <path d="M28.976,8.205l-0.685-1.386l-0.684,1.386l-1.529,0.222l1.106,1.079l-0.261,1.523l1.367-0.719l1.369,0.718l-0.262-1.522  l1.107-1.079L28.976,8.205z M28.996,10.116l-0.705-0.37l-0.703,0.369l0.134-0.783l-0.569-0.556l0.787-0.114l0.352-0.714l0.353,0.714  l0.788,0.114l-0.57,0.556L28.996,10.116z"/>
    <path d="M87.087,69.95l1.368,0.72l-0.261-1.524l1.106-1.079l-1.529-0.223l-0.685-1.385l-0.685,1.385l-1.529,0.223l1.106,1.079  l-0.261,1.524L87.087,69.95z M85.947,68.416l0.787-0.115l0.353-0.713l0.353,0.713l0.787,0.115l-0.569,0.556l0.134,0.784l-0.704-0.37  l-0.704,0.37l0.134-0.784L85.947,68.416z"/>
    <path d="M87.087,14.135l-0.902,2.777h-2.919l2.36,1.717l-0.901,2.775l2.362-1.716l2.361,1.716l-0.901-2.775l2.36-1.717h-2.919  L87.087,14.135z M87.959,18.438l0.538,1.658l-1.41-1.024l-1.411,1.024l0.538-1.658l-1.411-1.025h1.745l0.539-1.658l0.538,1.658  h1.745L87.959,18.438z"/>
    <path d="M79.131,5.267c-1.236,0-2.242,1.006-2.242,2.242s1.006,2.242,2.242,2.242s2.242-1.006,2.242-2.242  S80.367,5.267,79.131,5.267z M79.131,9.251c-0.961,0-1.742-0.781-1.742-1.742s0.781-1.742,1.742-1.742s1.742,0.781,1.742,1.742  S80.092,9.251,79.131,9.251z"/>
    <path d="M88.623,47.2c-0.985,0-1.786,0.801-1.786,1.786s0.801,1.786,1.786,1.786s1.786-0.801,1.786-1.786S89.608,47.2,88.623,47.2z   M88.623,50.272c-0.709,0-1.286-0.577-1.286-1.286s0.577-1.286,1.286-1.286s1.286,0.577,1.286,1.286S89.332,50.272,88.623,50.272z"/>
    <path d="M12.598,17.154c0,1.302,1.059,2.361,2.36,2.361s2.36-1.06,2.36-2.361s-1.059-2.36-2.36-2.36S12.598,15.853,12.598,17.154z   M14.958,15.294c1.025,0,1.86,0.835,1.86,1.86c0,1.026-0.835,1.861-1.86,1.861s-1.86-0.835-1.86-1.861  C13.098,16.129,13.933,15.294,14.958,15.294z"/>
    <path d="M21.983,88.514c0.325,0.082,0.654,0.156,0.987,0.224l0.1-0.49c-0.325-0.065-0.646-0.138-0.964-0.218L21.983,88.514z"/>
    <path d="M18.239,87.171c0.6,0.284,1.218,0.541,1.84,0.764l0.168-0.471c-0.605-0.217-1.209-0.468-1.793-0.744L18.239,87.171z"/>
    <path d="M6.863,71.81c0.098,0.656,0.229,1.313,0.389,1.949l0.484-0.121c-0.156-0.621-0.283-1.261-0.379-1.902L6.863,71.81z"/>
    <path d="M14.832,85.123c0.527,0.394,1.083,0.767,1.653,1.108l0.258-0.428c-0.556-0.334-1.099-0.697-1.612-1.081L14.832,85.123z"/>
    <path d="M7.831,75.661c0.224,0.623,0.479,1.241,0.762,1.837l0.451-0.213c-0.274-0.582-0.524-1.185-0.742-1.792L7.831,75.661z"/>
    <path d="M7.146,68.853c0-0.328,0.008-0.657,0.024-0.985l-0.5-0.025c-0.017,0.338-0.024,0.675-0.024,1.011  c0,0.327,0.008,0.653,0.023,0.979l0.5-0.023C7.153,69.49,7.146,69.172,7.146,68.853z"/>
    <path d="M11.894,82.447c0.442,0.489,0.914,0.963,1.404,1.409l0.336-0.369c-0.478-0.436-0.938-0.898-1.369-1.376L11.894,82.447z"/>
    <path d="M9.529,79.252c0.338,0.565,0.709,1.122,1.104,1.655l0.402-0.297c-0.385-0.521-0.747-1.063-1.076-1.614L9.529,79.252z"/>
    <path d="M7.534,64.95l-0.49-0.1c-0.067,0.333-0.125,0.665-0.174,0.997l0.494,0.074C7.413,65.598,7.469,65.273,7.534,64.95z"/>
    <path d="M89.183,76.983l0.498,0.045c0.03-0.336,0.05-0.676,0.056-1.019l-0.5-0.008C89.23,76.331,89.211,76.659,89.183,76.983z"/>
    <path d="M82.51,87.441l0.252,0.432c0.641-0.375,1.255-0.802,1.825-1.27l-0.316-0.387C83.72,86.668,83.127,87.08,82.51,87.441z"/>
    <path d="M88.12,81.128l0.459,0.199c0.296-0.681,0.538-1.389,0.722-2.104l-0.484-0.125C88.64,79.789,88.405,80.472,88.12,81.128z"/>
    <path d="M78.523,88.986l0.104,0.488c0.724-0.153,1.441-0.368,2.132-0.636l-0.182-0.467C79.912,88.631,79.221,88.837,78.523,88.986z"/>
    <path d="M85.817,84.73l0.373,0.332c0.493-0.554,0.945-1.15,1.343-1.772l-0.422-0.27C86.729,83.621,86.293,84.196,85.817,84.73z"/>
    <path d="M75.408,89.28l-0.01,0.5c0.094,0.002,0.188,0.003,0.281,0.003c0.247,0,0.492-0.007,0.737-0.019l-0.025-0.5  C76.066,89.281,75.74,89.289,75.408,89.28z"/>
    <rect x="88.373" y="36.377" width="0.5" height="2"/>
    <rect x="88.373" y="40.377" width="0.5" height="2"/>
    <rect x="88.373" y="32.377" width="0.5" height="2"/>
    <rect x="88.373" y="28.377" width="0.5" height="2"/>
    </g>
</svg>