<?xml version="1.0" encoding="utf-8"?>
<!-- Generator: Adobe Illustrator 21.0.0, SVG Export Plug-In . SVG Version: 6.00 Build 0)  -->
<svg version="1.1" id="Calque_1" xmlns="http://www.w3.org/2000/svg" xmlns:xlink="http://www.w3.org/1999/xlink" x="0px" y="0px"
	 viewBox="0 0 283.5 93.7" style="enable-background:new 0 0 283.5 93.7;" xml:space="preserve">
<style type="text/css">
	.st0{clip-path:url(#SVGID_2_);fill:url(#SVGID_3_);}
	.st1{clip-path:url(#SVGID_2_);fill:url(#SVGID_4_);}
	.st2{clip-path:url(#SVGID_2_);fill:url(#SVGID_5_);}
	.st3{clip-path:url(#SVGID_7_);fill:url(#SVGID_8_);}
	.st4{clip-path:url(#SVGID_7_);fill:url(#SVGID_9_);}
	.st5{clip-path:url(#SVGID_7_);fill:url(#SVGID_10_);}
	.st6{clip-path:url(#SVGID_7_);fill:url(#SVGID_11_);}
	.st7{clip-path:url(#SVGID_7_);fill:url(#SVGID_12_);}
	.st8{clip-path:url(#SVGID_7_);fill:url(#SVGID_13_);}
	.st9{clip-path:url(#SVGID_7_);fill:url(#SVGID_14_);}
	.st10{clip-path:url(#SVGID_7_);fill:url(#SVGID_15_);}
	.st11{fill:none;stroke:#000000;stroke-width:7;}
	.st12{clip-path:url(#SVGID_17_);fill:url(#SVGID_18_);}
	.st13{clip-path:url(#SVGID_17_);fill:url(#SVGID_19_);}
	.st14{clip-path:url(#SVGID_17_);fill:url(#SVGID_20_);}
	.st15{clip-path:url(#SVGID_17_);fill:url(#SVGID_21_);}
	.st16{fill:url(#SVGID_22_);}
	.st17{fill:url(#SVGID_23_);}
	.st18{clip-path:url(#SVGID_25_);fill:url(#SVGID_26_);}
	.st19{clip-path:url(#SVGID_25_);fill:url(#SVGID_27_);}
	.st20{clip-path:url(#SVGID_25_);fill:url(#SVGID_28_);}
	.st21{fill:url(#SVGID_29_);}
	.st22{fill:url(#SVGID_30_);}
	.st23{fill:url(#SVGID_31_);}
	.st24{clip-path:url(#SVGID_33_);fill:url(#SVGID_34_);}
	.st25{clip-path:url(#SVGID_33_);fill:url(#SVGID_35_);}
	.st26{clip-path:url(#SVGID_33_);fill:url(#SVGID_36_);}
	.st27{clip-path:url(#SVGID_38_);fill:url(#SVGID_39_);}
</style>
<g>
	<defs>
		<rect id="SVGID_1_" x="2.3" y="2.3" width="276.7" height="88.3"/>
	</defs>
	<clipPath id="SVGID_2_">
		<use xlink:href="#SVGID_1_"  style="overflow:visible;"/>
	</clipPath>
	
		<linearGradient id="SVGID_3_" gradientUnits="userSpaceOnUse" x1="3.4015" y1="142.5035" x2="3.7314" y2="142.5035" gradientTransform="matrix(-135.459 0 0 135.459 623.918 -19236.6055)">
		<stop  offset="0" style="stop-color:#B10061"/>
		<stop  offset="1" style="stop-color:#E6224A"/>
	</linearGradient>
	<path class="st0" d="M120,81.8c4.4,4.1,10.5,6.6,17.2,6.6c13.4,0,24.2-10.1,24.2-22.4c0-9.5-6.6-17.8-15.7-21
		c-0.5-0.2-0.8-0.7-0.6-1.3c0.2-0.5,0.7-0.8,1.3-0.6c9.8,3.5,17,12.4,17,22.9c0,13.5-11.8,24.4-26.2,24.4h0
		c-7.2,0-13.8-2.7-18.5-7.2c-0.4-0.4-0.4-1,0-1.4C118.9,81.5,119.6,81.5,120,81.8L120,81.8z"/>
	
		<linearGradient id="SVGID_4_" gradientUnits="userSpaceOnUse" x1="-0.7317" y1="141.9476" x2="-0.4018" y2="141.9476" gradientTransform="matrix(135.485 0 0 -135.485 217.637 19258.2754)">
		<stop  offset="0" style="stop-color:#B10061"/>
		<stop  offset="1" style="stop-color:#E6224A"/>
	</linearGradient>
	<path class="st1" d="M161.7,11.3c-4.4-4.1-10.5-6.6-17.2-6.6c-13.4,0-24.2,10.1-24.2,22.4c0,4.3,1.3,8.3,3.6,11.8
		c2.9,4.4,7.8,7.9,13.2,9.5c0.5,0.2,0.8,0.7,0.7,1.2c-0.2,0.5-0.7,0.8-1.2,0.7c-5.9-1.8-11-5.5-14.3-10.3c-2.5-3.7-3.9-8.1-3.9-12.9
		c0-13.5,11.8-24.4,26.2-24.4c7.2,0,13.8,2.7,18.5,7.2c0.4,0.4,0.4,1,0,1.4C162.7,11.6,162.1,11.7,161.7,11.3L161.7,11.3z"/>
	
		<linearGradient id="SVGID_5_" gradientUnits="userSpaceOnUse" x1="4.2942" y1="142.4864" x2="4.6241" y2="142.4864" gradientTransform="matrix(-93.4224 0 0 93.4224 555.6884 -13244.8848)">
		<stop  offset="0" style="stop-color:#B10061"/>
		<stop  offset="1" style="stop-color:#E6224A"/>
	</linearGradient>
	<path class="st2" d="M125.2,76.1c2.9,2.7,6.9,4.4,11.4,4.4c8.9,0,16-6.7,16.1-14.8c0-2.9-0.9-5.5-2.4-7.8c-1.6-2.3-3.8-4.2-6.5-5.5
		c-0.5-0.2-0.7-0.8-0.5-1.3s0.8-0.7,1.3-0.5c3,1.4,5.5,3.5,7.3,6.2c1.7,2.6,2.7,5.6,2.7,8.9c0,9.3-8.1,16.8-18,16.8
		c-5,0-9.5-1.9-12.8-4.9c-0.4-0.4-0.4-1,0-1.4C124.2,75.8,124.8,75.8,125.2,76.1L125.2,76.1z"/>
</g>
<g>
	<defs>
		<rect id="SVGID_6_" x="2.3" y="2.3" width="276.7" height="88.3"/>
	</defs>
	<clipPath id="SVGID_7_">
		<use xlink:href="#SVGID_6_"  style="overflow:visible;"/>
	</clipPath>
	
		<linearGradient id="SVGID_8_" gradientUnits="userSpaceOnUse" x1="-1.684" y1="141.6644" x2="-1.3541" y2="141.6644" gradientTransform="matrix(93.8442 0 0 -93.8442 285.0298 13321.459)">
		<stop  offset="0" style="stop-color:#B10061"/>
		<stop  offset="1" style="stop-color:#E6224A"/>
	</linearGradient>
	<path class="st3" d="M156.5,17.9c-2.9-2.6-7-4.2-11.5-4.1c-9,0-16.1,6.3-16.1,13.9c0,2.7,0.9,5.1,2.4,7.3c1.7,2.4,4.4,4.4,7.5,5.6
		c0.5,0.2,0.8,0.8,0.6,1.3c-0.2,0.5-0.8,0.8-1.3,0.6c-3.5-1.3-6.4-3.5-8.4-6.3c-1.7-2.4-2.7-5.3-2.7-8.4c0-8.9,8.2-15.9,18.1-15.9
		c5,0,9.5,1.8,12.8,4.6c0.4,0.4,0.5,1,0.1,1.4C157.5,18.2,156.9,18.2,156.5,17.9L156.5,17.9z"/>
	
		<linearGradient id="SVGID_9_" gradientUnits="userSpaceOnUse" x1="-0.1426" y1="142.6318" x2="0.1874" y2="142.6318" gradientTransform="matrix(99.7072 0 0 -99.7072 73.2928 14299.4219)">
		<stop  offset="0" style="stop-color:#B10061"/>
		<stop  offset="1" style="stop-color:#E6224A"/>
	</linearGradient>
	<path class="st4" d="M60.9,66.6c0,12.1,9.4,21.9,21,21.9c3.1,0,6.1-0.8,8.8-2.1c0.5-0.2,1.1,0,1.3,0.4s0,1.1-0.4,1.3
		c-3,1.5-6.3,2.4-9.7,2.4c-12.7,0-22.9-10.7-22.9-23.9c0-0.5,0.4-1,1-1C60.4,65.6,60.9,66,60.9,66.6L60.9,66.6z"/>
	
		<linearGradient id="SVGID_10_" gradientUnits="userSpaceOnUse" x1="-39.4746" y1="149.4049" x2="-39.1447" y2="149.4049" gradientTransform="matrix(5 0 0 -5 300 782.222)">
		<stop  offset="0" style="stop-color:#B10061"/>
		<stop  offset="1" style="stop-color:#E6224A"/>
	</linearGradient>
	<path class="st5" d="M102.5,66.8V3.6c0-0.5,0.4-1,1-1c0.5,0,1,0.4,1,1v63.1c0,0.5-0.4,1-1,1C102.9,67.7,102.5,67.3,102.5,66.8"/>
	
		<linearGradient id="SVGID_11_" gradientUnits="userSpaceOnUse" x1="-0.5534" y1="142.4738" x2="-0.2235" y2="142.4738" gradientTransform="matrix(84.8799 0 0 -84.8799 114.8771 12168.4043)">
		<stop  offset="0" style="stop-color:#B10061"/>
		<stop  offset="1" style="stop-color:#E6224A"/>
	</linearGradient>
	<path class="st6" d="M69.7,69.5C69.7,74.9,75.1,80,82,80c6.6,0,12-4.7,12.1-10.1c0-0.5,0.4-1,1-1c0.5,0,1,0.4,1,1
		C96,76.7,89.6,82,82,82c-7.9,0-14.3-5.8-14.3-12.5c0-0.5,0.4-1,1-1C69.3,68.5,69.7,68.9,69.7,69.5L69.7,69.5z"/>
	
		<linearGradient id="SVGID_12_" gradientUnits="userSpaceOnUse" x1="-7.1253" y1="144.0089" x2="-6.7954" y2="144.0089" gradientTransform="matrix(23.39 0 0 -23.39 263.22 3443.2141)">
		<stop  offset="0" style="stop-color:#B10061"/>
		<stop  offset="1" style="stop-color:#E6224A"/>
	</linearGradient>
	<path class="st7" d="M96.6,82.5c3.7-4.2,5.8-9.8,5.8-15.9c0-0.5,0.4-1,1-1s1,0.4,1,1c0,6.6-2.3,12.6-6.3,17.2
		c-0.4,0.4-1,0.5-1.4,0.1C96.3,83.5,96.3,82.9,96.6,82.5L96.6,82.5z"/>
	
		<linearGradient id="SVGID_13_" gradientUnits="userSpaceOnUse" x1="-36.0718" y1="151.1178" x2="-35.7419" y2="151.1178" gradientTransform="matrix(5 0 0 -5 274.609 792.5988)">
		<stop  offset="0" style="stop-color:#B10061"/>
		<stop  offset="1" style="stop-color:#E6224A"/>
	</linearGradient>
	<path class="st8" d="M96.1,3.8v66.3c0,0.5-0.4,1-1,1c-0.5,0-1-0.4-1-1V3.8c0-0.5,0.4-1,1-1C95.6,2.9,96.1,3.3,96.1,3.8"/>
	
		<linearGradient id="SVGID_14_" gradientUnits="userSpaceOnUse" x1="-21.7857" y1="149.7059" x2="-21.4558" y2="149.7059" gradientTransform="matrix(5 0 0 -5 168.01 784.0409)">
		<stop  offset="0" style="stop-color:#B10061"/>
		<stop  offset="1" style="stop-color:#E6224A"/>
	</linearGradient>
	<path class="st9" d="M58.9,67.4V3.7c0-0.5,0.4-1,1-1c0.5,0,1,0.4,1,1v63.7c0,0.5-0.4,1-1,1C59.4,68.3,58.9,67.9,58.9,67.4"/>
	
		<linearGradient id="SVGID_15_" gradientUnits="userSpaceOnUse" x1="-16.5859" y1="160.7607" x2="-16.256" y2="160.7607" gradientTransform="matrix(5 0 0 -5 129.211 850.3276)">
		<stop  offset="0" style="stop-color:#B10061"/>
		<stop  offset="1" style="stop-color:#E6224A"/>
	</linearGradient>
	<path class="st10" d="M48.1,3.8v85.4c0,0.5-0.4,1-1,1c-0.5,0-1-0.4-1-1V3.8c0-0.5,0.4-1,1-1C47.7,2.8,48.1,3.3,48.1,3.8"/>
</g>
<path class="st11" d="M18.7,58.4"/>
<path class="st11" d="M26.3,49.8"/>
<g>
	<defs>
		<rect id="SVGID_16_" x="2.3" y="2.3" width="276.7" height="88.3"/>
	</defs>
	<clipPath id="SVGID_17_">
		<use xlink:href="#SVGID_16_"  style="overflow:visible;"/>
	</clipPath>
	
		<linearGradient id="SVGID_18_" gradientUnits="userSpaceOnUse" x1="-12.974" y1="156.3922" x2="-12.6441" y2="156.3922" gradientTransform="matrix(5 0 0 -5 102.26 850.2487)">
		<stop  offset="0" style="stop-color:#B10061"/>
		<stop  offset="1" style="stop-color:#E6224A"/>
	</linearGradient>
	<path class="st12" d="M39.2,47.4v41.8c0,0.5-0.4,1-1,1c-0.5,0-1-0.4-1-1V47.4c0-0.5,0.4-1,1-1C38.8,46.4,39.2,46.8,39.2,47.4"/>
	
		<linearGradient id="SVGID_19_" gradientUnits="userSpaceOnUse" x1="-2.406" y1="157.8078" x2="-2.0761" y2="157.8078" gradientTransform="matrix(5 0 0 -5 23.4046 850.4811)">
		<stop  offset="0" style="stop-color:#B10061"/>
		<stop  offset="1" style="stop-color:#E6224A"/>
	</linearGradient>
	<path class="st13" d="M13.2,33.7v55.6c0,0.5-0.4,1-1,1c-0.5,0-1-0.4-1-1V33.7c0-0.5,0.4-1,1-1C12.7,32.7,13.2,33.1,13.2,33.7"/>
	
		<linearGradient id="SVGID_20_" gradientUnits="userSpaceOnUse" x1="1.0093" y1="141.5031" x2="1.3392" y2="141.5031" gradientTransform="matrix(71.2205 0 0 -71.2205 -69.2205 10098.8486)">
		<stop  offset="0" style="stop-color:#B10061"/>
		<stop  offset="1" style="stop-color:#E6224A"/>
	</linearGradient>
	<path class="st14" d="M4.3,3l21.8,34.8c0.3,0.5,0.2,1.1-0.3,1.4c-0.5,0.3-1.1,0.2-1.4-0.3L2.6,4.1C2.4,3.6,2.5,3,3,2.7S4,2.6,4.3,3
		"/>
	
		<linearGradient id="SVGID_21_" gradientUnits="userSpaceOnUse" x1="2.3013" y1="141.479" x2="2.6312" y2="141.479" gradientTransform="matrix(-69.7521 0 0 -69.7521 208.2021 9889.4326)">
		<stop  offset="0" style="stop-color:#B10061"/>
		<stop  offset="1" style="stop-color:#E6224A"/>
	</linearGradient>
	<polyline class="st15" points="47.8,4 26.3,38.9 24.6,37.9 46.1,3 	"/>
</g>
<linearGradient id="SVGID_22_" gradientUnits="userSpaceOnUse" x1="5.225937e-02" y1="139.2967" x2="0.3822" y2="139.2967" gradientTransform="matrix(29.2796 0 0 -29.2796 15.1219 4093.9773)">
	<stop  offset="0" style="stop-color:#B10061"/>
	<stop  offset="1" style="stop-color:#E6224A"/>
</linearGradient>
<polyline class="st16" points="17.8,8.1 26,22.2 25.1,22.7 17,8.6 "/>
<linearGradient id="SVGID_23_" gradientUnits="userSpaceOnUse" x1="3.1341" y1="139.3051" x2="3.464" y2="139.3051" gradientTransform="matrix(-29.2796 0 0 -29.2796 125.5198 4094.3433)">
	<stop  offset="0" style="stop-color:#B10061"/>
	<stop  offset="1" style="stop-color:#E6224A"/>
</linearGradient>
<polyline class="st17" points="33.4,8.7 25.3,22.8 24.4,22.4 32.6,8.2 "/>
<g>
	<defs>
		<rect id="SVGID_24_" x="2.3" y="2.3" width="276.7" height="88.3"/>
	</defs>
	<clipPath id="SVGID_25_">
		<use xlink:href="#SVGID_24_"  style="overflow:visible;"/>
	</clipPath>
	
		<linearGradient id="SVGID_26_" gradientUnits="userSpaceOnUse" x1="1.1044" y1="160.8447" x2="1.4343" y2="160.8447" gradientTransform="matrix(5 0 0 -5 -2.7894 851)">
		<stop  offset="0" style="stop-color:#B10061"/>
		<stop  offset="1" style="stop-color:#E6224A"/>
	</linearGradient>
	<path class="st18" d="M4.5,4.1v85.3c0,0.5-0.4,1-1,1s-1-0.4-1-1V4.1c0-0.5,0.4-1,1-1S4.5,3.6,4.5,4.1"/>
	
		<linearGradient id="SVGID_27_" gradientUnits="userSpaceOnUse" x1="-1.5924" y1="142.6878" x2="-1.2624" y2="142.6878" gradientTransform="matrix(137 0 0 -137 396 19594.7441)">
		<stop  offset="0" style="stop-color:#B10061"/>
		<stop  offset="1" style="stop-color:#E6224A"/>
	</linearGradient>
	<path class="st19" d="M179.7,3.7v84.7l42.6,0c0.5,0,1,0.4,1,1s-0.4,1-1,1h-43.5c-0.3,0-0.5-0.1-0.7-0.3s-0.3-0.4-0.3-0.7V3.7
		c0-0.5,0.4-1,1-1C179.2,2.7,179.7,3.1,179.7,3.7L179.7,3.7z"/>
	
		<linearGradient id="SVGID_28_" gradientUnits="userSpaceOnUse" x1="-2.405" y1="140.8847" x2="-2.0751" y2="140.8847" gradientTransform="matrix(109.68 0 0 -109.68 450.64 15456.0615)">
		<stop  offset="0" style="stop-color:#B10061"/>
		<stop  offset="1" style="stop-color:#E6224A"/>
	</linearGradient>
	<path class="st20" d="M187.7,2.8h34.5c0.5,0,1,0.4,1,1c0,0.5-0.4,1-1,1h-34.5c-0.5,0-1-0.4-1-1C186.7,3.3,187.1,2.8,187.7,2.8"/>
</g>
<linearGradient id="SVGID_29_" gradientUnits="userSpaceOnUse" x1="-4.3602" y1="142.7482" x2="-4.0303" y2="142.7482" gradientTransform="matrix(69.6729 0 0 -69.6729 490.6481 10009.4541)">
	<stop  offset="0" style="stop-color:#B10061"/>
	<stop  offset="1" style="stop-color:#E6224A"/>
</linearGradient>
<path class="st21" d="M209,47.4h-20.3v33.8c0,0.5-0.4,1-1,1c-0.5,0-1-0.4-1-1l0-34.8c0-0.3,0.1-0.5,0.3-0.7c0.2-0.2,0.4-0.3,0.7-0.3
	H209c0.5,0,1,0.4,1,1C210,46.9,209.6,47.4,209,47.4L209,47.4z"/>
<linearGradient id="SVGID_30_" gradientUnits="userSpaceOnUse" x1="-5.2365" y1="142.5602" x2="-4.9065" y2="142.5602" gradientTransform="matrix(62.5283 0 0 -62.5283 522.4077 8995.3516)">
	<stop  offset="0" style="stop-color:#B10061"/>
	<stop  offset="1" style="stop-color:#E6224A"/>
</linearGradient>
<path class="st22" d="M195.8,80.3h19c0.5,0,1,0.4,1,1c0,0.5-0.4,1-1,1h-19c-0.5,0-1-0.4-1-1C194.8,80.8,195.3,80.3,195.8,80.3"/>
<linearGradient id="SVGID_31_" gradientUnits="userSpaceOnUse" x1="2.729" y1="136.3007" x2="3.0589" y2="136.3007" gradientTransform="matrix(0 63.5105 63.5105 0 -8458.1709 -162.0935)">
	<stop  offset="0" style="stop-color:#B10061"/>
	<stop  offset="1" style="stop-color:#E6224A"/>
</linearGradient>
<path class="st23" d="M186.7,31.4V12.1c0-0.3,0.1-0.5,0.3-0.7c0.2-0.2,0.4-0.3,0.7-0.3H209c0.5,0,1,0.4,1,1c0,0.5-0.4,1-1,1l-20.3,0
	l0,18.3c0,0.5-0.4,1-1,1C187.1,32.3,186.7,31.9,186.7,31.4L186.7,31.4z"/>
<g>
	<defs>
		<rect id="SVGID_32_" x="2.3" y="2.3" width="276.7" height="88.3"/>
	</defs>
	<clipPath id="SVGID_33_">
		<use xlink:href="#SVGID_32_"  style="overflow:visible;"/>
	</clipPath>
	
		<linearGradient id="SVGID_34_" gradientUnits="userSpaceOnUse" x1="5.1329" y1="142.5068" x2="5.4628" y2="142.5068" gradientTransform="matrix(-135.459 0 0 135.459 973.918 -19237.2773)">
		<stop  offset="0" style="stop-color:#B10061"/>
		<stop  offset="1" style="stop-color:#E6224A"/>
	</linearGradient>
	<path class="st24" d="M235.4,81.6c4.4,4.1,10.5,6.6,17.2,6.6c13.4,0,24.2-10.1,24.2-22.4c0-9.5-6.6-17.8-15.7-21
		c-0.5-0.2-0.8-0.7-0.6-1.3c0.2-0.5,0.7-0.8,1.3-0.6c9.8,3.5,17,12.4,17,22.9c0,13.5-11.8,24.4-26.2,24.4c-7.2,0-13.8-2.7-18.5-7.2
		c-0.4-0.4-0.4-1,0-1.4C234.4,81.3,235,81.2,235.4,81.6L235.4,81.6z"/>
	
		<linearGradient id="SVGID_35_" gradientUnits="userSpaceOnUse" x1="-2.4627" y1="141.9443" x2="-2.1328" y2="141.9443" gradientTransform="matrix(135.485 0 0 -135.485 567.637 19257.6016)">
		<stop  offset="0" style="stop-color:#B10061"/>
		<stop  offset="1" style="stop-color:#E6224A"/>
	</linearGradient>
	<path class="st25" d="M277.2,11.1C272.8,7,266.7,4.4,260,4.4c-13.4,0-24.2,10.1-24.2,22.4c0,4.3,1.3,8.3,3.6,11.8
		c2.9,4.4,7.8,7.9,13.2,9.5c0.5,0.2,0.8,0.7,0.7,1.2c-0.2,0.5-0.7,0.8-1.2,0.7c-5.9-1.8-11-5.5-14.3-10.3c-2.5-3.7-3.9-8.1-3.9-12.9
		c0-13.5,11.8-24.4,26.2-24.4c7.2,0,13.8,2.7,18.5,7.2c0.4,0.4,0.4,1,0,1.4C278.2,11.4,277.6,11.4,277.2,11.1L277.2,11.1z"/>
	
		<linearGradient id="SVGID_36_" gradientUnits="userSpaceOnUse" x1="6.8047" y1="142.4913" x2="7.1346" y2="142.4913" gradientTransform="matrix(-93.4224 0 0 93.4224 905.6884 -13245.5576)">
		<stop  offset="0" style="stop-color:#B10061"/>
		<stop  offset="1" style="stop-color:#E6224A"/>
	</linearGradient>
	<path class="st26" d="M240.7,75.9c2.9,2.7,6.9,4.4,11.4,4.4c8.9,0,16-6.7,16.1-14.8c0-2.9-0.9-5.5-2.4-7.8
		c-1.6-2.3-3.8-4.2-6.5-5.5c-0.5-0.2-0.7-0.8-0.5-1.3c0.2-0.5,0.8-0.7,1.3-0.5c3,1.4,5.5,3.5,7.3,6.2c1.7,2.6,2.7,5.6,2.7,8.9
		c0,9.3-8.1,16.8-18,16.8c-5,0-9.5-1.9-12.8-4.9c-0.4-0.4-0.4-1,0-1.4C239.7,75.6,240.3,75.5,240.7,75.9L240.7,75.9z"/>
</g>
<g>
	<defs>
		<rect id="SVGID_37_" x="2.3" y="2.3" width="276.7" height="88.3"/>
	</defs>
	<clipPath id="SVGID_38_">
		<use xlink:href="#SVGID_37_"  style="overflow:visible;"/>
	</clipPath>
	
		<linearGradient id="SVGID_39_" gradientUnits="userSpaceOnUse" x1="-4.1831" y1="141.6596" x2="-3.8532" y2="141.6596" gradientTransform="matrix(93.8442 0 0 -93.8442 635.0298 13320.7871)">
		<stop  offset="0" style="stop-color:#B10061"/>
		<stop  offset="1" style="stop-color:#E6224A"/>
	</linearGradient>
	<path class="st27" d="M271.9,17.6c-2.9-2.6-7-4.2-11.5-4.1c-9,0-16.1,6.3-16.1,13.9c0,2.7,0.9,5.1,2.4,7.3c1.7,2.4,4.4,4.4,7.5,5.6
		c0.5,0.2,0.8,0.8,0.6,1.3c-0.2,0.5-0.8,0.8-1.3,0.6c-3.5-1.3-6.4-3.5-8.4-6.3c-1.7-2.4-2.7-5.3-2.7-8.4c0-8.9,8.2-15.9,18.1-15.9
		c5,0,9.5,1.8,12.8,4.6c0.4,0.4,0.5,1,0.1,1.4C273,18,272.3,18,271.9,17.6L271.9,17.6z"/>
</g>
</svg>
